<mxfile host="app.diagrams.net" modified="2022-03-12T05:54:55.393Z" agent="5.0 (Macintosh; Intel Mac OS X 10_15_7) AppleWebKit/537.36 (KHTML, like Gecko) Chrome/99.0.4844.51 Safari/537.36" etag="iZTh9UDtDWfkbe2oPs-s" version="17.1.1" type="github">
  <diagram id="q9lR3YfNL49On_7W1kd5" name="Page-1">
    <mxGraphModel dx="1258" dy="587" grid="1" gridSize="10" guides="1" tooltips="1" connect="1" arrows="1" fold="1" page="1" pageScale="1" pageWidth="850" pageHeight="1100" math="0" shadow="0">
      <root>
        <mxCell id="0" />
        <mxCell id="1" parent="0" />
        <mxCell id="Eknh5964y688mAtiyr7k-18" value="" style="edgeStyle=orthogonalEdgeStyle;rounded=0;orthogonalLoop=1;jettySize=auto;html=1;entryX=-0.006;entryY=0.464;entryDx=0;entryDy=0;entryPerimeter=0;" edge="1" parent="1" source="Eknh5964y688mAtiyr7k-1" target="Eknh5964y688mAtiyr7k-13">
          <mxGeometry relative="1" as="geometry">
            <mxPoint x="300" y="145" as="targetPoint" />
          </mxGeometry>
        </mxCell>
        <mxCell id="Eknh5964y688mAtiyr7k-1" value="Welcome Screen" style="rounded=1;whiteSpace=wrap;html=1;" vertex="1" parent="1">
          <mxGeometry x="70" y="115" width="150" height="60" as="geometry" />
        </mxCell>
        <mxCell id="Eknh5964y688mAtiyr7k-11" value="" style="edgeStyle=orthogonalEdgeStyle;rounded=0;orthogonalLoop=1;jettySize=auto;html=1;" edge="1" parent="1" source="Eknh5964y688mAtiyr7k-5" target="Eknh5964y688mAtiyr7k-6">
          <mxGeometry relative="1" as="geometry" />
        </mxCell>
        <mxCell id="Eknh5964y688mAtiyr7k-5" value="OTP Verification" style="rounded=1;whiteSpace=wrap;html=1;" vertex="1" parent="1">
          <mxGeometry x="575" y="140" width="150" height="60" as="geometry" />
        </mxCell>
        <mxCell id="Eknh5964y688mAtiyr7k-12" value="" style="edgeStyle=orthogonalEdgeStyle;rounded=0;orthogonalLoop=1;jettySize=auto;html=1;" edge="1" parent="1" source="Eknh5964y688mAtiyr7k-6" target="Eknh5964y688mAtiyr7k-7">
          <mxGeometry relative="1" as="geometry" />
        </mxCell>
        <mxCell id="Eknh5964y688mAtiyr7k-6" value="Profile Setup Page" style="rounded=1;whiteSpace=wrap;html=1;" vertex="1" parent="1">
          <mxGeometry x="575" y="280" width="150" height="60" as="geometry" />
        </mxCell>
        <mxCell id="Eknh5964y688mAtiyr7k-13" value="" style="rounded=1;whiteSpace=wrap;html=1;" vertex="1" parent="1">
          <mxGeometry x="305" y="60" width="180" height="180" as="geometry" />
        </mxCell>
        <mxCell id="Eknh5964y688mAtiyr7k-7" value="Dashboard" style="rounded=1;whiteSpace=wrap;html=1;" vertex="1" parent="1">
          <mxGeometry x="320" y="280" width="150" height="60" as="geometry" />
        </mxCell>
        <mxCell id="Eknh5964y688mAtiyr7k-22" style="edgeStyle=orthogonalEdgeStyle;rounded=0;orthogonalLoop=1;jettySize=auto;html=1;fontSize=18;" edge="1" parent="1" source="Eknh5964y688mAtiyr7k-14" target="Eknh5964y688mAtiyr7k-21">
          <mxGeometry relative="1" as="geometry" />
        </mxCell>
        <mxCell id="Eknh5964y688mAtiyr7k-14" value="Login" style="rounded=1;whiteSpace=wrap;html=1;" vertex="1" parent="1">
          <mxGeometry x="340" y="80" width="95" height="30" as="geometry" />
        </mxCell>
        <mxCell id="Eknh5964y688mAtiyr7k-23" style="edgeStyle=orthogonalEdgeStyle;rounded=0;orthogonalLoop=1;jettySize=auto;html=1;entryX=0;entryY=0.5;entryDx=0;entryDy=0;fontSize=18;" edge="1" parent="1" source="Eknh5964y688mAtiyr7k-16" target="Eknh5964y688mAtiyr7k-5">
          <mxGeometry relative="1" as="geometry" />
        </mxCell>
        <mxCell id="Eknh5964y688mAtiyr7k-16" value="Sign Up" style="rounded=1;whiteSpace=wrap;html=1;" vertex="1" parent="1">
          <mxGeometry x="340" y="130" width="105" height="30" as="geometry" />
        </mxCell>
        <mxCell id="Eknh5964y688mAtiyr7k-24" style="edgeStyle=orthogonalEdgeStyle;rounded=0;orthogonalLoop=1;jettySize=auto;html=1;entryX=0;entryY=0.5;entryDx=0;entryDy=0;fontSize=18;" edge="1" parent="1" source="Eknh5964y688mAtiyr7k-17" target="Eknh5964y688mAtiyr7k-5">
          <mxGeometry relative="1" as="geometry" />
        </mxCell>
        <mxCell id="Eknh5964y688mAtiyr7k-17" value="Social Media Icons" style="rounded=1;whiteSpace=wrap;html=1;" vertex="1" parent="1">
          <mxGeometry x="332.5" y="180" width="112.5" height="30" as="geometry" />
        </mxCell>
        <mxCell id="Eknh5964y688mAtiyr7k-20" value="&lt;font style=&quot;font-size: 18px&quot;&gt;Every new Registration must verify Mobile&amp;nbsp;&lt;/font&gt;" style="text;html=1;strokeColor=none;fillColor=none;align=center;verticalAlign=middle;whiteSpace=wrap;rounded=0;" vertex="1" parent="1">
          <mxGeometry x="220" y="20" width="387.5" height="30" as="geometry" />
        </mxCell>
        <mxCell id="Eknh5964y688mAtiyr7k-21" value="Login Screen" style="rounded=1;whiteSpace=wrap;html=1;" vertex="1" parent="1">
          <mxGeometry x="580" y="70" width="140" height="50" as="geometry" />
        </mxCell>
      </root>
    </mxGraphModel>
  </diagram>
</mxfile>
